<svg xmlns="http://www.w3.org/2000/svg" xmlns:xlink="http://www.w3.org/1999/xlink" width="500" zoomAndPan="magnify" viewBox="0 0 375 374.999991" height="500" preserveAspectRatio="xMidYMid meet" version="1.0"><defs><clipPath id="5467349ca5"><path d="M 34 41.71875 L 375 41.71875 L 375 188 L 34 188 Z M 34 41.71875 " clip-rule="nonzero"/></clipPath><clipPath id="59afdfb83e"><path d="M 0 187 L 341 187 L 341 333.46875 L 0 333.46875 Z M 0 187 " clip-rule="nonzero"/></clipPath></defs><g clip-path="url(#5467349ca5)"><path fill="#00adef" d="M 34.824219 187.578125 L 91.128906 187.578125 L 135.46875 131.46875 L 79.160156 131.46875 Z M 318.6875 41.710938 L 200.855469 187.578125 L 257.160156 187.578125 L 374.996094 41.710938 Z M 205.867188 78.363281 L 117.839844 187.578125 L 174.144531 187.578125 L 262.171875 78.363281 L 205.867188 78.363281 " fill-opacity="1" fill-rule="nonzero"/></g><g clip-path="url(#59afdfb83e)"><path fill="#4f4c4c" d="M 340.175781 187.582031 L 283.871094 187.582031 L 239.53125 243.691406 L 295.839844 243.691406 Z M 56.308594 333.449219 L 174.144531 187.582031 L 117.839844 187.582031 L 0.00390625 333.449219 Z M 169.136719 296.800781 L 257.160156 187.582031 L 200.855469 187.582031 L 112.828125 296.800781 L 169.136719 296.800781 " fill-opacity="1" fill-rule="nonzero"/></g></svg>